<svg xmlns="http://www.w3.org/2000/svg" viewBox="0 0 100 100">
  <defs><clipPath id="ball"><circle cx="50" cy="50" r="45"/></clipPath></defs>
  <circle cx="50" cy="50" r="45" fill="#ffffff" stroke="#15140f" stroke-width="4"/>
  <g clip-path="url(#ball)" fill="#15140f"><path d="M68.22,24.92 L63.5,10.39 L75.86,1.4 L88.23,10.39 L83.5,24.92 Z"/><path d="M79.48,59.58 L91.85,50.6 L104.21,59.58 L99.49,74.11 L84.21,74.11 Z"/><path d="M50,81 L62.36,89.98 L57.64,104.52 L42.36,104.52 L37.64,89.98 Z"/><path d="M20.52,59.58 L15.79,74.11 L0.51,74.11 L-4.21,59.58 L8.15,50.6 Z"/><path d="M31.78,24.92 L16.5,24.92 L11.77,10.39 L24.14,1.4 L36.5,10.39 Z"/><path d="M50,34 L65.22,45.06 L59.4,62.94 L40.6,62.94 L34.78,45.06 Z"/></g>
  <g clip-path="url(#ball)" stroke="#15140f" stroke-width="3" stroke-linecap="round"><line x1="50.00" y1="34.00" x2="50.00" y2="6.00"/><line x1="65.22" y1="45.06" x2="91.85" y2="36.40"/><line x1="59.40" y1="62.94" x2="75.86" y2="85.60"/><line x1="40.60" y1="62.94" x2="24.14" y2="85.60"/><line x1="34.78" y1="45.06" x2="8.15" y2="36.40"/></g>
</svg>