<svg xmlns="http://www.w3.org/2000/svg" viewBox="0 0 100 100">
  <defs><clipPath id="ball"><circle cx="50" cy="50" r="35"/></clipPath></defs>
  <rect x="0" y="0" width="100" height="100" rx="24" fill="#2a2825"/>
  <circle cx="50" cy="50" r="35" fill="#ffffff" stroke="#15140f" stroke-width="3"/>
  <g clip-path="url(#ball)" fill="#15140f"><path d="M64.11,30.58 L60.47,19.4 L69.98,12.49 L79.5,19.4 L75.86,30.58 Z"/><path d="M72.83,57.42 L82.34,50.51 L91.85,57.42 L88.21,68.6 L76.46,68.6 Z"/><path d="M50,74 L59.51,80.91 L55.88,92.09 L44.12,92.09 L40.49,80.91 Z"/><path d="M27.17,57.42 L23.54,68.6 L11.79,68.6 L8.15,57.42 L17.66,50.51 Z"/><path d="M35.89,30.58 L24.14,30.58 L20.5,19.4 L30.02,12.49 L39.53,19.4 Z"/><path d="M50,37.5 L61.89,46.14 L57.35,60.11 L42.65,60.11 L38.11,46.14 Z"/></g>
  <g clip-path="url(#ball)" stroke="#15140f" stroke-width="2.4" stroke-linecap="round"><line x1="50.00" y1="37.50" x2="50.00" y2="16.00"/><line x1="61.89" y1="46.14" x2="82.34" y2="39.49"/><line x1="57.35" y1="60.11" x2="69.98" y2="77.51"/><line x1="42.65" y1="60.11" x2="30.02" y2="77.51"/><line x1="38.11" y1="46.14" x2="17.66" y2="39.49"/></g>
</svg>